<svg aria-hidden="true" style="position: absolute; width: 0; height: 0; overflow: hidden;" version="1.1" xmlns="http://www.w3.org/2000/svg" xmlns:xlink="http://www.w3.org/1999/xlink">
<defs>
<symbol id="icon-delivery" viewBox="0 0 32 32">
<path d="M25.113 12.906c-0.087-0.125-0.231-0.2-0.381-0.2h-2.906v-1.238c0-0.256-0.212-0.469-0.469-0.469h-10.531c-0.256 0-0.469 0.213-0.469 0.469v7.575c0 0.256 0.213 0.469 0.469 0.469h1.325c0.244 0.85 1.031 1.481 1.956 1.481s1.713-0.625 1.956-1.481h5.194c0.244 0.85 1.031 1.481 1.956 1.481s1.712-0.625 1.956-1.481h0.969c0.256 0 0.469-0.212 0.469-0.469v-3.856c0-0.1-0.031-0.194-0.087-0.269l-1.406-2.012zM25.675 15.325h-2.1v-1.675h0.919l1.181 1.675zM11.294 11.944h9.594v6.638h-4.781c-0.181-0.944-1.006-1.656-2-1.656s-1.825 0.712-2 1.656h-0.813v-6.637zM14.106 20.056c-0.606 0-1.1-0.494-1.1-1.1s0.494-1.1 1.1-1.1 1.1 0.494 1.1 1.1-0.494 1.1-1.1 1.1zM23.219 20.056c-0.606 0-1.1-0.494-1.1-1.1s0.494-1.1 1.1-1.1 1.1 0.494 1.1 1.1-0.494 1.1-1.1 1.1zM25.219 18.581c-0.181-0.944-1.006-1.656-2-1.656-0.538 0-1.031 0.212-1.394 0.556v-3.831h0.806v2.144c0 0.256 0.212 0.469 0.469 0.469h2.581v2.319h-0.462zM5.85 11.944h3.344c0.256 0 0.469-0.213 0.469-0.469s-0.213-0.469-0.469-0.469h-3.344c-0.256 0-0.469 0.213-0.469 0.469s0.213 0.469 0.469 0.469zM9.194 12.713h-2.575c-0.256 0-0.469 0.213-0.469 0.469s0.213 0.469 0.469 0.469h2.575c0.256 0 0.469-0.213 0.469-0.469s-0.206-0.469-0.469-0.469zM9.194 14.419h-1.625c-0.256 0-0.469 0.213-0.469 0.469s0.213 0.469 0.469 0.469h1.625c0.256 0 0.469-0.213 0.469-0.469s-0.206-0.469-0.469-0.469zM9.194 16.125h-0.563c-0.256 0-0.469 0.212-0.469 0.469s0.213 0.469 0.469 0.469h0.563c0.256 0 0.469-0.212 0.469-0.469s-0.206-0.469-0.469-0.469z"></path>
</symbol>
<symbol id="icon-person" viewBox="0 0 32 32">
<path  d="M16 16c2.946 0 5.333-2.388 5.333-5.333s-2.388-5.333-5.333-5.333v0c-2.946 0-5.333 2.388-5.333 5.333s2.388 5.333 5.333 5.333v0zM16 18.667c-3.561 0-10.667 1.787-10.667 5.333v1.333c0 0.732 0.599 1.333 1.333 1.333h18.667c0.732 0 1.333-0.601 1.333-1.333v-1.333c0-3.547-7.108-5.333-10.667-5.333z"></path>
</symbol>
<symbol id="icon-phone" viewBox="0 0 32 32">
<path d="M24.882 19.774l-3.268-0.373c-0.090-0.011-0.194-0.018-0.299-0.018-0.707 0-1.348 0.287-1.811 0.75l-2.368 2.368c-3.669-1.894-6.585-4.81-8.427-8.372l-0.051-0.108 2.382-2.377c0.463-0.463 0.75-1.103 0.75-1.81 0-0.106-0.006-0.21-0.019-0.312l0.001 0.012-0.373-3.243c-0.155-1.287-1.24-2.276-2.557-2.276-0.001 0-0.002 0-0.003 0h-2.226c-1.454 0-2.663 1.209-2.574 2.663 0.683 10.987 9.47 19.76 20.444 20.443 1.452 0.089 2.663-1.12 2.663-2.574v-2.226c0-0.004 0-0.008 0-0.012 0-1.308-0.985-2.386-2.253-2.532l-0.012-0.001z"></path>
</symbol>

<symbol id="icon-cash" viewBox="0 0 32 32">
<path d="M25.333 5.333h-18.667c-2.209 0-4 1.791-4 4v0 13.333c0 2.209 1.791 4 4 4v0h18.667c2.209 0 4-1.791 4-4v0-13.333c0-2.209-1.791-4-4-4v0zM26.667 19.067h-4c-1.694 0-3.067-1.373-3.067-3.067s1.373-3.067 3.067-3.067v0h4zM26.667 10.667h-4c-2.946 0-5.333 2.388-5.333 5.333s2.388 5.333 5.333 5.333v0h4v1.333c0 0.736-0.597 1.333-1.333 1.333v0h-18.667c-0.736 0-1.333-0.597-1.333-1.333v0-13.333c0-0.736 0.597-1.333 1.333-1.333v0h18.667c0.736 0 1.333 0.597 1.333 1.333v0zM21.333 16c0 0.736 0.597 1.333 1.333 1.333s1.333-0.597 1.333-1.333c0-0.736-0.597-1.333-1.333-1.333v0c-0.736 0-1.333 0.597-1.333 1.333v0z"></path>
</symbol>
<symbol id="icon-google_pay" viewBox="0 0 40 32">
<path d="M6.607 13.438v2.578h3.569c-0.153 0.853-0.637 1.571-1.311 2.031l-0.011 0.007c-0.596 0.409-1.357 0.642-2.25 0.642-1.725 0-3.183-1.182-3.706-2.764-0.13-0.383-0.205-0.823-0.205-1.281s0.075-0.899 0.214-1.31l-0.008 0.029c0.523-1.591 1.981-2.773 3.706-2.773 0.020-0 0.043-0.001 0.066-0.001 0.96 0 1.831 0.384 2.467 1.006l-0.001-0.001 1.893-1.914c-1.132-1.077-2.668-1.74-4.358-1.74-0.022 0-0.045 0-0.067 0l0.003-0c-2.577 0.010-4.804 1.496-5.881 3.656l-0.017 0.038c-0.447 0.876-0.709 1.91-0.709 3.006s0.262 2.13 0.726 3.044l-0.018-0.038v0.009c1.095 2.197 3.323 3.681 5.898 3.688h0.001c1.779 0 3.284-0.596 4.375-1.619 1.25-1.163 1.963-2.884 1.963-4.932 0-0.004 0-0.009 0-0.013 0-0.476-0.040-0.943-0.116-1.397l0.007 0.049zM30.946 13.188c-0.633-0.586-1.496-0.884-2.587-0.884-1.404 0-2.459 0.521-3.156 1.554l1.303 0.829q0.716-1.063 1.954-1.063c0.548 0.001 1.047 0.21 1.424 0.551l-0.002-0.002c0.372 0.324 0.605 0.798 0.606 1.327v0.344c-0.569-0.317-1.284-0.484-2.165-0.484-1.027 0-1.853 0.242-2.468 0.736s-0.926 1.144-0.926 1.973c-0.001 0.019-0.001 0.042-0.001 0.065 0 0.755 0.337 1.431 0.869 1.887l0.003 0.003c0.578 0.521 1.313 0.782 2.174 0.782 1.018 0 1.826-0.456 2.438-1.368h0.063v1.107h1.413v-4.919c0.004-1.034-0.308-1.854-0.941-2.438zM29.744 18.769c-0.423 0.43-1.011 0.697-1.66 0.698h-0c-0.009 0-0.019 0-0.030 0-0.424 0-0.813-0.147-1.119-0.394l0.003 0.003c-0.296-0.224-0.486-0.575-0.486-0.971 0-0.002 0-0.004 0-0.006v0c0-0.438 0.201-0.801 0.596-1.089s0.908-0.438 1.504-0.438c0.823-0.010 1.466 0.177 1.925 0.549 0 0.633-0.247 1.182-0.734 1.648zM23.891 9.894c-0.63-0.63-1.5-1.019-2.462-1.019-0.025 0-0.049 0-0.074 0.001l0.004-0h-3.917v11.671h1.477v-4.727h2.438c1 0 1.844-0.335 2.532-0.996 0.055-0.056 0.11-0.112 0.166-0.168 0.554-0.603 0.894-1.412 0.894-2.299 0-0.969-0.405-1.844-1.056-2.464l-0.001-0.001zM22.854 13.783c-0.35 0.373-0.847 0.606-1.398 0.606-0.021 0-0.043-0-0.064-0.001l0.003 0h-2.477v-4.076h2.477c0.002 0 0.005 0 0.007 0 0.548 0 1.044 0.22 1.405 0.577l-0-0c0.377 0.376 0.61 0.895 0.61 1.469 0 0.551-0.215 1.052-0.565 1.423l0.001-0.001zM38.394 12.563l-2.284 5.731h-0.028l-2.339-5.731h-1.606l3.237 7.472-1.834 4.020h1.522l4.938-11.492z"></path>
</symbol>
<symbol id="icon-mastercard" viewBox="0 0 32 32">
<path fill="#ff9800" style="fill: var(--color1, #ff9800)" d="M21.333 6.667c-5.155 0-9.333 4.179-9.333 9.333s4.179 9.333 9.333 9.333v0c5.155 0 9.333-4.179 9.333-9.333s-4.179-9.333-9.333-9.333v0z"></path>
<path fill="#d50000" style="fill: var(--color2, #d50000)" d="M10.667 6.667c-5.155 0-9.333 4.179-9.333 9.333s4.179 9.333 9.333 9.333v0c5.155 0 9.333-4.179 9.333-9.333s-4.179-9.333-9.333-9.333v0z"></path>
<path fill="#ff3d00" style="fill: var(--color3, #ff3d00)" d="M12 16c0 3.17 1.584 5.967 4 7.653 2.416-1.687 4-4.483 4-7.653s-1.584-5.967-4-7.653c-2.416 1.687-4 4.483-4 7.653z"></path>
</symbol>


<symbol id="icon-close" viewBox="0 0 32 32">
<path  d="M32 3.223l-3.223-3.223-12.777 12.777-12.777-12.777-3.223 3.223 12.777 12.777-12.777 12.777 3.223 3.223 12.777-12.777 12.777 12.777 3.223-3.223-12.777-12.777 12.777-12.777z"></path>
</symbol>
</defs>
</svg>
